<?xml version="1.0" encoding="UTF-8" standalone="no"?>
<!-- Created with Inkscape (http://www.inkscape.org/) -->

<svg
   width="84.001877mm"
   height="41.453468mm"
   viewBox="0 0 84.001877 41.453468"
   version="1.1"
   id="svg5"
   inkscape:version="1.2.2 (732a01da63, 2022-12-09)"
   sodipodi:docname="download_win32.svg"
   xmlns:inkscape="http://www.inkscape.org/namespaces/inkscape"
   xmlns:sodipodi="http://sodipodi.sourceforge.net/DTD/sodipodi-0.dtd"
   xmlns="http://www.w3.org/2000/svg"
   xmlns:svg="http://www.w3.org/2000/svg">
  <sodipodi:namedview
     id="namedview7"
     pagecolor="#ffffff"
     bordercolor="#666666"
     borderopacity="1.0"
     inkscape:pageshadow="2"
     inkscape:pageopacity="0.0"
     inkscape:pagecheckerboard="true"
     inkscape:document-units="mm"
     showgrid="false"
     inkscape:zoom="1.4745087"
     inkscape:cx="85.452192"
     inkscape:cy="152.9323"
     inkscape:window-width="1920"
     inkscape:window-height="1010"
     inkscape:window-x="-6"
     inkscape:window-y="-6"
     inkscape:window-maximized="1"
     inkscape:current-layer="layer1"
     borderlayer="false"
     fit-margin-top="0"
     fit-margin-left="0"
     fit-margin-right="0"
     fit-margin-bottom="0"
     inkscape:showpageshadow="2"
     inkscape:deskcolor="#d1d1d1" />
  <defs
     id="defs2" />
  <g
     inkscape:label="Layer 1"
     inkscape:groupmode="layer"
     id="layer1"
     transform="translate(-1.5421491,-1.9666858)">
    <path
       id="rect846"
       style="fill:none;stroke:#b5e853;stroke-width:1.27758"
       d="M 7.1906314,4.0770407 H 79.895549 c 1.960121,0 3.538124,1.5780033 3.538124,3.5381241 V 37.771674 c 0,1.960121 -1.578003,3.538124 -3.538124,3.538124 H 7.1906314 c -1.9601208,0 -3.5381241,-1.578003 -3.5381241,-3.538124 V 7.6151648 c 0,-1.9601208 1.5780033,-3.5381241 3.5381241,-3.5381241 z" />
    <g
       aria-label="Download"
       id="text43662"
       style="font-size:22.9411px;line-height:1.25;font-family:Uroob;-inkscape-font-specification:Uroob;letter-spacing:0px;word-spacing:0px;fill:#b5e853;stroke-width:0.269">
      <path
         d="m 18.518455,22.873519 q 0,0.996952 -0.604892,1.624248 -0.604892,0.616094 -1.613046,0.616094 H 10.318805 V 10.798078 h 5.533644 q 1.097767,0 1.881887,0.728111 0.784119,0.728111 0.784119,1.825878 z m -2.027509,-0.481673 v -8.670123 q 0,-0.750514 -0.582489,-1.086565 -0.179227,-0.112017 -0.414463,-0.100816 h -3.136479 v 10.820851 h 3.47253 q 0.571287,-0.0112 0.638498,-0.616094 0.0224,-0.179227 0.0224,-0.347253 z"
         id="path13883" />
      <path
         d="m 26.415659,22.761502 q 0.0112,0.963347 -0.795321,1.624248 -0.806523,0.672103 -1.814677,0.672103 h -1.44502 q -1.019356,0 -1.848282,-0.660901 -0.828926,-0.660901 -0.828926,-1.63545 v -6.29536 q 0,-0.98575 0.828926,-1.646651 0.828926,-0.660901 1.848282,-0.660901 h 1.44502 q 0.985751,0 1.803475,0.660901 0.806523,0.660901 0.806523,1.646651 z m -1.915492,-0.369656 v -5.556048 q 0,-0.425664 -0.246437,-0.716909 -0.235236,-0.302446 -0.694506,-0.302446 h -1.064163 q -0.470471,0 -0.683304,0.302446 -0.212832,0.291245 -0.212832,0.716909 v 5.556048 q 0,0.425665 0.212832,0.728111 0.212833,0.291244 0.683304,0.291244 h 1.064163 q 0.45927,0 0.694506,-0.291244 0.246437,-0.302446 0.246437,-0.728111 z"
         id="path13885" />
      <path
         d="m 33.114281,24.284935 q -0.795321,0.772918 -1.657853,0.772918 h -1.478625 q -0.996952,0 -1.713862,-0.6497 -0.716909,-0.649699 -0.716909,-1.646651 v -8.569307 h 1.915492 v 8.199651 q 0,0.425665 0.212832,0.728111 0.212833,0.291244 0.683305,0.291244 h 0.85133 q 0.582488,0 0.851329,-0.515278 0.07841,-0.156824 0.07841,-0.336051 v -8.367677 l 1.926694,-0.0112 v 8.401281 q 0,0.358455 0.25764,0.593691 0.268841,0.235235 0.627295,0.235235 h 0.85133 q 0.45927,0 0.694506,-0.291244 0.246438,-0.302446 0.246438,-0.728111 v -8.199651 l 1.915492,-0.0112 v 8.580508 q 0,0.974549 -0.694506,1.63545 -0.694506,0.660901 -1.691458,0.660901 h -1.456222 q -0.929742,0 -1.70266,-0.772918 z"
         id="path13887" />
      <path
         d="m 41.481957,14.841894 q 0.649699,-0.649699 1.3106,-0.649699 h 1.904291 q 0.974548,0 1.680256,0.660901 0.705707,0.660901 0.705707,1.646651 v 8.602912 h -1.915492 v -8.233255 q 0,-0.425665 -0.246437,-0.71691 -0.235236,-0.302446 -0.694506,-0.302446 h -1.63545 q -0.660901,-0.0112 -0.840128,0.817725 -0.04481,0.224034 -0.05601,0.425665 v 8.009221 h -1.915493 l -0.0112,-10.910464 h 1.713861 z"
         id="path13889" />
      <path
         d="m 50.35371,25.113861 q -2.173131,0 -2.173131,-1.893089 V 12.366317 h 2.027509 v 10.260765 q 0,0.672102 0.436867,0.817725 0.201631,0.06721 0.470472,0.05601 0.280042,-0.0112 0.604892,-0.0112 v 1.624248 z"
         id="path13891" />
      <path
         d="m 59.606323,22.761502 q 0.0112,0.963347 -0.795322,1.624248 -0.806523,0.672103 -1.814676,0.672103 h -1.445021 q -1.019355,0 -1.848282,-0.660901 -0.828926,-0.660901 -0.828926,-1.63545 v -6.29536 q 0,-0.98575 0.828926,-1.646651 0.828927,-0.660901 1.848282,-0.660901 h 1.445021 q 0.98575,0 1.803475,0.660901 0.806523,0.660901 0.806523,1.646651 z m -1.915492,-0.369656 v -5.556048 q 0,-0.425664 -0.246438,-0.716909 -0.235236,-0.302446 -0.694506,-0.302446 h -1.064162 q -0.470472,0 -0.683304,0.302446 -0.212833,0.291245 -0.212833,0.716909 v 5.556048 q 0,0.425665 0.212833,0.728111 0.212832,0.291244 0.683304,0.291244 h 1.064162 q 0.45927,0 0.694506,-0.291244 0.246438,-0.302446 0.246438,-0.728111 z"
         id="path13893" />
      <path
         d="m 66.461765,16.802193 q 0,-0.940943 -0.907338,-0.940943 h -2.038711 q -0.336051,0 -0.52648,0.212832 -0.179228,0.201631 -0.190429,0.526481 h -1.926694 q 0.0224,-1.019356 0.660901,-1.725064 0.638497,-0.705707 1.624247,-0.705707 h 2.990857 q 0.963346,0 1.57944,0.694506 0.616094,0.694506 0.616094,1.691458 v 8.558105 h -1.870685 v -0.436867 q -0.604892,0.470472 -1.187381,0.470472 h -1.83708 q -1.019356,0 -1.848282,-0.660901 -0.828927,-0.6609 -0.828927,-1.624247 v -2.128325 q 0,-0.98575 0.828927,-1.646651 0.828926,-0.660901 1.848282,-0.660901 h 2.173131 q 0.448069,0 0.840128,0.246438 z m -0.0336,5.690468 v -1.389012 q 0,-0.425665 -0.246437,-0.716909 -0.235236,-0.302446 -0.694506,-0.302446 h -1.904291 q -0.470471,0 -0.683304,0.302446 -0.212832,0.291244 -0.212832,0.716909 v 1.389012 q 0,0.425665 0.212832,0.728111 0.212833,0.291245 0.683304,0.291245 h 1.904291 q 0.45927,0 0.694506,-0.291245 0.246437,-0.302446 0.246437,-0.728111 z"
         id="path13895" />
      <path
         d="m 73.608456,14.180994 q 0.672103,0 1.232188,0.336051 v -3.662959 h 1.926694 V 25.057853 H 75.00867 v -0.526481 q -0.728111,0.526481 -1.624248,0.526481 h -0.78412 q -1.433818,0 -2.273946,-0.929742 -0.85133,-0.929742 -0.85133,-2.374762 v -4.25665 q 0,-2.352359 1.579441,-3.069268 0.548883,-0.246437 1.321801,-0.246437 z m 1.232188,8.401281 v -5.970511 q 0,-0.324849 -0.302446,-0.548883 -0.302446,-0.224035 -0.616094,-0.224035 h -1.187381 q -1.153776,0 -1.299398,1.097768 -0.04481,0.336051 -0.04481,0.705707 v 4.077422 q 0.0112,0.873734 0.190429,1.153776 0.347253,0.537682 1.153776,0.537682 h 0.963347 q 0.616094,0 1.019355,-0.492875 0.123219,-0.156824 0.123219,-0.336051 z"
         id="path13897" />
    </g>
    <text
       xml:space="preserve"
       style="font-style:normal;font-variant:normal;font-weight:bold;font-stretch:normal;font-size:7.76111px;font-family:Candara;-inkscape-font-specification:'Candara Bold';fill:#b5e853;fill-opacity:1;stroke-width:0.264583"
       x="16.256092"
       y="35.162773"
       id="text264"><tspan
         sodipodi:role="line"
         id="tspan262"
         style="font-style:normal;font-variant:normal;font-weight:bold;font-stretch:normal;font-size:7.76111px;font-family:Candara;-inkscape-font-specification:'Candara Bold';fill:#b5e853;fill-opacity:1;stroke-width:0.264583"
         x="16.256092"
         y="35.162773">(Windows 32bit)</tspan></text>
  </g>
</svg>
