<?xml version="1.0" encoding="UTF-8" standalone="no"?>
<!-- Created with Inkscape (http://www.inkscape.org/) -->

<svg
   width="84.001877mm"
   height="41.453468mm"
   viewBox="0 0 84.001877 41.453468"
   version="1.1"
   id="svg5"
   inkscape:version="1.1.2 (0a00cf5339, 2022-02-04)"
   sodipodi:docname="download.svg"
   xmlns:inkscape="http://www.inkscape.org/namespaces/inkscape"
   xmlns:sodipodi="http://sodipodi.sourceforge.net/DTD/sodipodi-0.dtd"
   xmlns="http://www.w3.org/2000/svg"
   xmlns:svg="http://www.w3.org/2000/svg">
  <sodipodi:namedview
     id="namedview7"
     pagecolor="#ffffff"
     bordercolor="#666666"
     borderopacity="1.0"
     inkscape:pageshadow="2"
     inkscape:pageopacity="0.0"
     inkscape:pagecheckerboard="true"
     inkscape:document-units="mm"
     showgrid="false"
     inkscape:zoom="1.4745087"
     inkscape:cx="216.34325"
     inkscape:cy="152.2541"
     inkscape:window-width="1846"
     inkscape:window-height="1016"
     inkscape:window-x="74"
     inkscape:window-y="27"
     inkscape:window-maximized="1"
     inkscape:current-layer="layer1"
     borderlayer="false"
     fit-margin-top="0"
     fit-margin-left="0"
     fit-margin-right="0"
     fit-margin-bottom="0" />
  <defs
     id="defs2" />
  <g
     inkscape:label="Layer 1"
     inkscape:groupmode="layer"
     id="layer1"
     transform="translate(-1.5421491,-1.9666858)">
    <path
       id="rect846"
       style="fill:none;stroke:#b5e853;stroke-width:1.27758"
       d="M 7.1906314,4.0770407 H 79.895549 c 1.960121,0 3.538124,1.5780033 3.538124,3.5381241 V 37.771674 c 0,1.960121 -1.578003,3.538124 -3.538124,3.538124 H 7.1906314 c -1.9601208,0 -3.5381241,-1.578003 -3.5381241,-3.538124 V 7.6151648 c 0,-1.9601208 1.5780033,-3.5381241 3.5381241,-3.5381241 z" />
    <g
       aria-label="Download"
       id="text43662"
       style="font-size:22.9411px;line-height:1.25;font-family:Uroob;-inkscape-font-specification:Uroob;letter-spacing:0px;word-spacing:0px;fill:#b5e853;stroke-width:0.269">
      <path
         d="m 18.518455,22.873519 q 0,0.996952 -0.604892,1.624248 -0.604892,0.616094 -1.613046,0.616094 H 10.318805 V 10.798078 h 5.533644 q 1.097767,0 1.881887,0.728111 0.784119,0.728111 0.784119,1.825878 z m -2.027509,-0.481673 v -8.670123 q 0,-0.750514 -0.582489,-1.086565 -0.179227,-0.112017 -0.414463,-0.100816 h -3.136479 v 10.820851 h 3.47253 q 0.571287,-0.0112 0.638498,-0.616094 0.0224,-0.179227 0.0224,-0.347253 z"
         id="path13883" />
      <path
         d="m 26.415659,22.761502 q 0.0112,0.963347 -0.795321,1.624248 -0.806523,0.672103 -1.814677,0.672103 h -1.44502 q -1.019356,0 -1.848282,-0.660901 -0.828926,-0.660901 -0.828926,-1.63545 v -6.29536 q 0,-0.98575 0.828926,-1.646651 0.828926,-0.660901 1.848282,-0.660901 h 1.44502 q 0.985751,0 1.803475,0.660901 0.806523,0.660901 0.806523,1.646651 z m -1.915492,-0.369656 v -5.556048 q 0,-0.425664 -0.246437,-0.716909 -0.235236,-0.302446 -0.694506,-0.302446 h -1.064163 q -0.470471,0 -0.683304,0.302446 -0.212832,0.291245 -0.212832,0.716909 v 5.556048 q 0,0.425665 0.212832,0.728111 0.212833,0.291244 0.683304,0.291244 h 1.064163 q 0.45927,0 0.694506,-0.291244 0.246437,-0.302446 0.246437,-0.728111 z"
         id="path13885" />
      <path
         d="m 33.114281,24.284935 q -0.795321,0.772918 -1.657853,0.772918 h -1.478625 q -0.996952,0 -1.713862,-0.6497 -0.716909,-0.649699 -0.716909,-1.646651 v -8.569307 h 1.915492 v 8.199651 q 0,0.425665 0.212832,0.728111 0.212833,0.291244 0.683305,0.291244 h 0.85133 q 0.582488,0 0.851329,-0.515278 0.07841,-0.156824 0.07841,-0.336051 v -8.367677 l 1.926694,-0.0112 v 8.401281 q 0,0.358455 0.25764,0.593691 0.268841,0.235235 0.627295,0.235235 h 0.85133 q 0.45927,0 0.694506,-0.291244 0.246438,-0.302446 0.246438,-0.728111 v -8.199651 l 1.915492,-0.0112 v 8.580508 q 0,0.974549 -0.694506,1.63545 -0.694506,0.660901 -1.691458,0.660901 h -1.456222 q -0.929742,0 -1.70266,-0.772918 z"
         id="path13887" />
      <path
         d="m 41.481957,14.841894 q 0.649699,-0.649699 1.3106,-0.649699 h 1.904291 q 0.974548,0 1.680256,0.660901 0.705707,0.660901 0.705707,1.646651 v 8.602912 h -1.915492 v -8.233255 q 0,-0.425665 -0.246437,-0.71691 -0.235236,-0.302446 -0.694506,-0.302446 h -1.63545 q -0.660901,-0.0112 -0.840128,0.817725 -0.04481,0.224034 -0.05601,0.425665 v 8.009221 h -1.915493 l -0.0112,-10.910464 h 1.713861 z"
         id="path13889" />
      <path
         d="m 50.35371,25.113861 q -2.173131,0 -2.173131,-1.893089 V 12.366317 h 2.027509 v 10.260765 q 0,0.672102 0.436867,0.817725 0.201631,0.06721 0.470472,0.05601 0.280042,-0.0112 0.604892,-0.0112 v 1.624248 z"
         id="path13891" />
      <path
         d="m 59.606323,22.761502 q 0.0112,0.963347 -0.795322,1.624248 -0.806523,0.672103 -1.814676,0.672103 h -1.445021 q -1.019355,0 -1.848282,-0.660901 -0.828926,-0.660901 -0.828926,-1.63545 v -6.29536 q 0,-0.98575 0.828926,-1.646651 0.828927,-0.660901 1.848282,-0.660901 h 1.445021 q 0.98575,0 1.803475,0.660901 0.806523,0.660901 0.806523,1.646651 z m -1.915492,-0.369656 v -5.556048 q 0,-0.425664 -0.246438,-0.716909 -0.235236,-0.302446 -0.694506,-0.302446 h -1.064162 q -0.470472,0 -0.683304,0.302446 -0.212833,0.291245 -0.212833,0.716909 v 5.556048 q 0,0.425665 0.212833,0.728111 0.212832,0.291244 0.683304,0.291244 h 1.064162 q 0.45927,0 0.694506,-0.291244 0.246438,-0.302446 0.246438,-0.728111 z"
         id="path13893" />
      <path
         d="m 66.461765,16.802193 q 0,-0.940943 -0.907338,-0.940943 h -2.038711 q -0.336051,0 -0.52648,0.212832 -0.179228,0.201631 -0.190429,0.526481 h -1.926694 q 0.0224,-1.019356 0.660901,-1.725064 0.638497,-0.705707 1.624247,-0.705707 h 2.990857 q 0.963346,0 1.57944,0.694506 0.616094,0.694506 0.616094,1.691458 v 8.558105 h -1.870685 v -0.436867 q -0.604892,0.470472 -1.187381,0.470472 h -1.83708 q -1.019356,0 -1.848282,-0.660901 -0.828927,-0.6609 -0.828927,-1.624247 v -2.128325 q 0,-0.98575 0.828927,-1.646651 0.828926,-0.660901 1.848282,-0.660901 h 2.173131 q 0.448069,0 0.840128,0.246438 z m -0.0336,5.690468 v -1.389012 q 0,-0.425665 -0.246437,-0.716909 -0.235236,-0.302446 -0.694506,-0.302446 h -1.904291 q -0.470471,0 -0.683304,0.302446 -0.212832,0.291244 -0.212832,0.716909 v 1.389012 q 0,0.425665 0.212832,0.728111 0.212833,0.291245 0.683304,0.291245 h 1.904291 q 0.45927,0 0.694506,-0.291245 0.246437,-0.302446 0.246437,-0.728111 z"
         id="path13895" />
      <path
         d="m 73.608456,14.180994 q 0.672103,0 1.232188,0.336051 v -3.662959 h 1.926694 V 25.057853 H 75.00867 v -0.526481 q -0.728111,0.526481 -1.624248,0.526481 h -0.78412 q -1.433818,0 -2.273946,-0.929742 -0.85133,-0.929742 -0.85133,-2.374762 v -4.25665 q 0,-2.352359 1.579441,-3.069268 0.548883,-0.246437 1.321801,-0.246437 z m 1.232188,8.401281 v -5.970511 q 0,-0.324849 -0.302446,-0.548883 -0.302446,-0.224035 -0.616094,-0.224035 h -1.187381 q -1.153776,0 -1.299398,1.097768 -0.04481,0.336051 -0.04481,0.705707 v 4.077422 q 0.0112,0.873734 0.190429,1.153776 0.347253,0.537682 1.153776,0.537682 h 0.963347 q 0.616094,0 1.019355,-0.492875 0.123219,-0.156824 0.123219,-0.336051 z"
         id="path13897" />
    </g>
    <g
       aria-label="(Dos 16bit)"
       id="text54548"
       style="font-size:8.66622px;line-height:1.25;font-family:Uroob;-inkscape-font-specification:Uroob;letter-spacing:0px;word-spacing:0px;fill:#b5e853;stroke-width:0.541638">
      <path
         d="m 31.345636,36.873261 q -0.689743,-0.05501 -1.150983,-0.748984 -0.550101,-0.820922 -0.677048,-2.25965 -0.03385,-0.380839 -0.03385,-0.672816 0.0042,-1.205993 0.368145,-2.242723 0.291977,-0.829385 0.833616,-1.218687 0.283514,-0.203115 0.660122,-0.232736 v 0.634733 q -0.787069,0.177725 -1.024036,1.954977 -0.07617,0.575491 -0.07617,0.935173 0,0.355451 0.01693,0.643196 0.01693,0.283514 0.08463,0.820922 0.07194,0.537407 0.296209,1.03673 0.275051,0.617807 0.702438,0.719364 z"
         id="path13900" />
      <path
         d="m 34.815509,34.747506 q 0,0.376608 -0.228504,0.613575 -0.228504,0.232735 -0.609343,0.232735 h -2.25965 v -5.407924 h 2.090387 q 0.414693,0 0.710901,0.275051 0.296209,0.275051 0.296209,0.689743 z m -0.765911,-0.181957 v -3.275222 q 0,-0.283514 -0.220041,-0.41046 -0.06771,-0.04232 -0.156567,-0.03808 h -1.184835 v 4.087679 h 1.311781 q 0.21581,-0.0042 0.241199,-0.232735 0.0085,-0.06771 0.0085,-0.131178 z"
         id="path13902" />
      <path
         d="m 37.798753,34.70519 q 0.0042,0.363914 -0.30044,0.613575 -0.304672,0.253893 -0.685512,0.253893 h -0.54587 q -0.385071,0 -0.698206,-0.249661 Q 35.25559,35.073335 35.25559,34.70519 v -2.378133 q 0,-0.372376 0.313135,-0.622038 0.313135,-0.249661 0.698206,-0.249661 h 0.54587 q 0.372377,0 0.68128,0.249661 0.304672,0.249662 0.304672,0.622038 z m -0.723595,-0.139641 v -2.09885 q 0,-0.160799 -0.09309,-0.27082 -0.08886,-0.114252 -0.262357,-0.114252 H 36.31771 q -0.177725,0 -0.258125,0.114252 -0.0804,0.110021 -0.0804,0.27082 v 2.09885 q 0,0.160799 0.0804,0.275051 0.0804,0.11002 0.258125,0.11002 h 0.401997 q 0.173494,0 0.262357,-0.11002 0.09309,-0.114252 0.09309,-0.275051 z"
         id="path13904" />
      <path
         d="m 40.117644,32.365141 q 0.0085,-0.236966 -0.291977,-0.236966 h -0.528944 q -0.363913,0.0042 -0.330061,0.495091 0.0085,0.126947 0.0085,0.228504 0,0.317366 0.321598,0.317366 h 0.740522 q 0.38084,0 0.613575,0.27082 0.236967,0.270819 0.236967,0.647427 v 0.567028 q 0,0.389303 -0.253893,0.668586 -0.253893,0.275051 -0.638965,0.275051 h -0.930941 q -0.414692,0 -0.647428,-0.266588 -0.236967,-0.266588 -0.236967,-0.68128 h 0.727827 q -0.0085,0.148104 0.07194,0.211578 0.08463,0.05924 0.22004,0.05924 h 0.613576 q 0.321598,0 0.321598,-0.317366 v -0.423155 q 0,-0.330062 -0.321598,-0.330062 h -0.698207 q -0.385071,0 -0.638964,-0.241198 -0.253893,-0.241199 -0.253893,-0.622038 v -0.617807 q 0,-0.38084 0.236967,-0.651659 0.236967,-0.270819 0.613575,-0.270819 h 0.909784 q 0.389303,0 0.626269,0.258124 0.236967,0.258125 0.236967,0.660122 z"
         id="path13906" />
      <path
         d="m 44.154545,31.984302 q -0.114252,0.0042 -0.0804,-0.605112 0.0085,-0.126947 0.0085,-0.177725 l 0.583954,-0.38084 0.596649,-0.0042 v 4.773192 H 44.52269 l -0.0042,-3.84225 q -0.02116,0.01269 -0.177725,0.126946 -0.156568,0.110021 -0.186189,0.110021 z"
         id="path13908" />
      <path
         d="m 46.397269,32.682508 q 0.211578,-0.07617 0.262356,-0.07617 h 1.036731 q 0.385071,0 0.685511,0.262356 0.30044,0.262356 0.30044,0.651659 v 1.167909 q 0,0.38084 -0.317366,0.643196 -0.317367,0.262356 -0.710901,0.262356 h -0.952099 q -0.401998,0 -0.727827,-0.258125 -0.32583,-0.258124 -0.32583,-0.647427 v -2.907077 q 0,-0.401997 0.236967,-0.685511 0.236967,-0.283514 0.630501,-0.283514 h 2.052303 v 0.664353 h -1.82803 q -0.342756,0 -0.342756,0.296209 z m 0.01693,1.912662 q 0,0.342755 0.296209,0.342755 h 0.892857 q 0.152336,0 0.232736,-0.09732 0.0804,-0.101558 0.0804,-0.24543 v -0.977489 q 0,-0.148104 -0.0804,-0.24543 -0.0804,-0.09733 -0.232736,-0.09733 h -0.892857 q -0.296209,0 -0.296209,0.342756 z"
         id="path13910" />
      <path
         d="m 49.833289,31.590767 q 0.211578,-0.126946 0.465471,-0.126946 h 0.465471 q 0.554333,0 0.825153,0.338524 0.270819,0.338524 0.270819,0.914015 v 1.60799 q 0,0.545871 -0.321598,0.897089 -0.321598,0.351219 -0.859005,0.351219 h -0.296209 q -0.338524,0 -0.613575,-0.198883 v 0.198883 H 49.105462 V 30.20705 h 0.727827 z m 1.303318,2.720889 v -1.540285 q 0,-0.334293 -0.07194,-0.452777 -0.139641,-0.228503 -0.43585,-0.228503 h -0.448544 q -0.21581,0 -0.317367,0.173493 -0.03385,0.05501 -0.02962,0.118484 v 2.255417 q -0.0042,0.194652 0.30044,0.287746 0.07617,0.02539 0.131179,0.02539 h 0.363913 q 0.43585,0 0.49086,-0.376608 0.01693,-0.118484 0.01693,-0.262356 z"
         id="path13912" />
      <path
         d="m 52.647272,30.232439 q 0.465471,0 0.465471,0.473934 0,0.478165 -0.465471,0.478165 -0.228503,0 -0.351218,-0.122715 -0.122715,-0.126946 -0.122715,-0.35545 0,-0.228504 0.122715,-0.351219 0.122715,-0.122715 0.351218,-0.122715 z m 0.355451,5.340219 h -0.727827 v -4.113069 h 0.727827 z"
         id="path13914" />
      <path
         d="m 54.424523,34.717885 q 0,0.313135 0.338525,0.313135 0.342755,0 0.380839,-0.355451 h 0.156568 v 0.765911 q -0.279283,0.253893 -0.651659,0.253893 -0.698206,0 -0.918247,-0.524712 -0.07194,-0.169262 -0.07194,-0.401998 v -2.5347 h -0.308903 v -0.638964 h 0.308903 v -0.808227 h 0.765911 v 0.808227 h 0.583955 v 0.638964 h -0.583955 z"
         id="path13916" />
      <path
         d="m 57.60242,33.191811 q -0.0042,1.205992 -0.368145,2.238491 -0.291977,0.825153 -0.833616,1.210224 -0.283514,0.203115 -0.660122,0.232735 V 36.24276 q 0.787069,-0.186188 1.024036,-1.971903 0.07617,-0.579723 0.07617,-1.091741 0,-0.914015 -0.181957,-1.675695 -0.296209,-1.222919 -0.918247,-1.371023 v -0.634733 q 0.689743,0.05501 1.150982,0.748985 0.550102,0.829384 0.677049,2.272344 0.03385,0.38084 0.03385,0.672817 z"
         id="path13918" />
    </g>
  </g>
</svg>
