<?xml version="1.0" encoding="UTF-8" standalone="no"?>
<!-- Created with Inkscape (http://www.inkscape.org/) -->

<svg
   width="84.001877mm"
   height="41.453468mm"
   viewBox="0 0 84.001877 41.453468"
   version="1.1"
   id="svg5"
   inkscape:version="1.1.2 (0a00cf5339, 2022-02-04)"
   sodipodi:docname="download_win32.svg"
   xmlns:inkscape="http://www.inkscape.org/namespaces/inkscape"
   xmlns:sodipodi="http://sodipodi.sourceforge.net/DTD/sodipodi-0.dtd"
   xmlns="http://www.w3.org/2000/svg"
   xmlns:svg="http://www.w3.org/2000/svg">
  <sodipodi:namedview
     id="namedview7"
     pagecolor="#ffffff"
     bordercolor="#666666"
     borderopacity="1.0"
     inkscape:pageshadow="2"
     inkscape:pageopacity="0.0"
     inkscape:pagecheckerboard="true"
     inkscape:document-units="mm"
     showgrid="false"
     inkscape:zoom="1.4745087"
     inkscape:cx="85.452192"
     inkscape:cy="152.9323"
     inkscape:window-width="1846"
     inkscape:window-height="1016"
     inkscape:window-x="74"
     inkscape:window-y="27"
     inkscape:window-maximized="1"
     inkscape:current-layer="layer1"
     borderlayer="false"
     fit-margin-top="0"
     fit-margin-left="0"
     fit-margin-right="0"
     fit-margin-bottom="0"
     inkscape:showpageshadow="2"
     inkscape:deskcolor="#d1d1d1" />
  <defs
     id="defs2" />
  <g
     inkscape:label="Layer 1"
     inkscape:groupmode="layer"
     id="layer1"
     transform="translate(-1.5421491,-1.9666858)">
    <path
       id="rect846"
       style="fill:none;stroke:#b5e853;stroke-width:1.27758"
       d="M 7.1906314,4.0770407 H 79.895549 c 1.960121,0 3.538124,1.5780033 3.538124,3.5381241 V 37.771674 c 0,1.960121 -1.578003,3.538124 -3.538124,3.538124 H 7.1906314 c -1.9601208,0 -3.5381241,-1.578003 -3.5381241,-3.538124 V 7.6151648 c 0,-1.9601208 1.5780033,-3.5381241 3.5381241,-3.5381241 z" />
    <g
       aria-label="Download"
       id="text43662"
       style="font-size:22.9411px;line-height:1.25;font-family:Uroob;-inkscape-font-specification:Uroob;letter-spacing:0px;word-spacing:0px;fill:#b5e853;stroke-width:0.269">
      <path
         d="m 18.518455,22.873519 q 0,0.996952 -0.604892,1.624248 -0.604892,0.616094 -1.613046,0.616094 H 10.318805 V 10.798078 h 5.533644 q 1.097767,0 1.881887,0.728111 0.784119,0.728111 0.784119,1.825878 z m -2.027509,-0.481673 v -8.670123 q 0,-0.750514 -0.582489,-1.086565 -0.179227,-0.112017 -0.414463,-0.100816 h -3.136479 v 10.820851 h 3.47253 q 0.571287,-0.0112 0.638498,-0.616094 0.0224,-0.179227 0.0224,-0.347253 z"
         id="path13883" />
      <path
         d="m 26.415659,22.761502 q 0.0112,0.963347 -0.795321,1.624248 -0.806523,0.672103 -1.814677,0.672103 h -1.44502 q -1.019356,0 -1.848282,-0.660901 -0.828926,-0.660901 -0.828926,-1.63545 v -6.29536 q 0,-0.98575 0.828926,-1.646651 0.828926,-0.660901 1.848282,-0.660901 h 1.44502 q 0.985751,0 1.803475,0.660901 0.806523,0.660901 0.806523,1.646651 z m -1.915492,-0.369656 v -5.556048 q 0,-0.425664 -0.246437,-0.716909 -0.235236,-0.302446 -0.694506,-0.302446 h -1.064163 q -0.470471,0 -0.683304,0.302446 -0.212832,0.291245 -0.212832,0.716909 v 5.556048 q 0,0.425665 0.212832,0.728111 0.212833,0.291244 0.683304,0.291244 h 1.064163 q 0.45927,0 0.694506,-0.291244 0.246437,-0.302446 0.246437,-0.728111 z"
         id="path13885" />
      <path
         d="m 33.114281,24.284935 q -0.795321,0.772918 -1.657853,0.772918 h -1.478625 q -0.996952,0 -1.713862,-0.6497 -0.716909,-0.649699 -0.716909,-1.646651 v -8.569307 h 1.915492 v 8.199651 q 0,0.425665 0.212832,0.728111 0.212833,0.291244 0.683305,0.291244 h 0.85133 q 0.582488,0 0.851329,-0.515278 0.07841,-0.156824 0.07841,-0.336051 v -8.367677 l 1.926694,-0.0112 v 8.401281 q 0,0.358455 0.25764,0.593691 0.268841,0.235235 0.627295,0.235235 h 0.85133 q 0.45927,0 0.694506,-0.291244 0.246438,-0.302446 0.246438,-0.728111 v -8.199651 l 1.915492,-0.0112 v 8.580508 q 0,0.974549 -0.694506,1.63545 -0.694506,0.660901 -1.691458,0.660901 h -1.456222 q -0.929742,0 -1.70266,-0.772918 z"
         id="path13887" />
      <path
         d="m 41.481957,14.841894 q 0.649699,-0.649699 1.3106,-0.649699 h 1.904291 q 0.974548,0 1.680256,0.660901 0.705707,0.660901 0.705707,1.646651 v 8.602912 h -1.915492 v -8.233255 q 0,-0.425665 -0.246437,-0.71691 -0.235236,-0.302446 -0.694506,-0.302446 h -1.63545 q -0.660901,-0.0112 -0.840128,0.817725 -0.04481,0.224034 -0.05601,0.425665 v 8.009221 h -1.915493 l -0.0112,-10.910464 h 1.713861 z"
         id="path13889" />
      <path
         d="m 50.35371,25.113861 q -2.173131,0 -2.173131,-1.893089 V 12.366317 h 2.027509 v 10.260765 q 0,0.672102 0.436867,0.817725 0.201631,0.06721 0.470472,0.05601 0.280042,-0.0112 0.604892,-0.0112 v 1.624248 z"
         id="path13891" />
      <path
         d="m 59.606323,22.761502 q 0.0112,0.963347 -0.795322,1.624248 -0.806523,0.672103 -1.814676,0.672103 h -1.445021 q -1.019355,0 -1.848282,-0.660901 -0.828926,-0.660901 -0.828926,-1.63545 v -6.29536 q 0,-0.98575 0.828926,-1.646651 0.828927,-0.660901 1.848282,-0.660901 h 1.445021 q 0.98575,0 1.803475,0.660901 0.806523,0.660901 0.806523,1.646651 z m -1.915492,-0.369656 v -5.556048 q 0,-0.425664 -0.246438,-0.716909 -0.235236,-0.302446 -0.694506,-0.302446 h -1.064162 q -0.470472,0 -0.683304,0.302446 -0.212833,0.291245 -0.212833,0.716909 v 5.556048 q 0,0.425665 0.212833,0.728111 0.212832,0.291244 0.683304,0.291244 h 1.064162 q 0.45927,0 0.694506,-0.291244 0.246438,-0.302446 0.246438,-0.728111 z"
         id="path13893" />
      <path
         d="m 66.461765,16.802193 q 0,-0.940943 -0.907338,-0.940943 h -2.038711 q -0.336051,0 -0.52648,0.212832 -0.179228,0.201631 -0.190429,0.526481 h -1.926694 q 0.0224,-1.019356 0.660901,-1.725064 0.638497,-0.705707 1.624247,-0.705707 h 2.990857 q 0.963346,0 1.57944,0.694506 0.616094,0.694506 0.616094,1.691458 v 8.558105 h -1.870685 v -0.436867 q -0.604892,0.470472 -1.187381,0.470472 h -1.83708 q -1.019356,0 -1.848282,-0.660901 -0.828927,-0.6609 -0.828927,-1.624247 v -2.128325 q 0,-0.98575 0.828927,-1.646651 0.828926,-0.660901 1.848282,-0.660901 h 2.173131 q 0.448069,0 0.840128,0.246438 z m -0.0336,5.690468 v -1.389012 q 0,-0.425665 -0.246437,-0.716909 -0.235236,-0.302446 -0.694506,-0.302446 h -1.904291 q -0.470471,0 -0.683304,0.302446 -0.212832,0.291244 -0.212832,0.716909 v 1.389012 q 0,0.425665 0.212832,0.728111 0.212833,0.291245 0.683304,0.291245 h 1.904291 q 0.45927,0 0.694506,-0.291245 0.246437,-0.302446 0.246437,-0.728111 z"
         id="path13895" />
      <path
         d="m 73.608456,14.180994 q 0.672103,0 1.232188,0.336051 v -3.662959 h 1.926694 V 25.057853 H 75.00867 v -0.526481 q -0.728111,0.526481 -1.624248,0.526481 h -0.78412 q -1.433818,0 -2.273946,-0.929742 -0.85133,-0.929742 -0.85133,-2.374762 v -4.25665 q 0,-2.352359 1.579441,-3.069268 0.548883,-0.246437 1.321801,-0.246437 z m 1.232188,8.401281 v -5.970511 q 0,-0.324849 -0.302446,-0.548883 -0.302446,-0.224035 -0.616094,-0.224035 h -1.187381 q -1.153776,0 -1.299398,1.097768 -0.04481,0.336051 -0.04481,0.705707 v 4.077422 q 0.0112,0.873734 0.190429,1.153776 0.347253,0.537682 1.153776,0.537682 h 0.963347 q 0.616094,0 1.019355,-0.492875 0.123219,-0.156824 0.123219,-0.336051 z"
         id="path13897" />
    </g>
    <g
       aria-label="(Windows 32/64bit)"
       id="text264"
       style="font-weight:bold;font-size:11.2889px;font-family:Uroob;-inkscape-font-specification:'Uroob Bold';fill:#b5e853;stroke-width:0.264583"
       transform="matrix(0.80242086,0,0,0.80242086,7.8634178,6.6098332)">
      <path
         d="M 11.864075,37.919418 Q 10.965593,37.84776 10.364768,36.943766 9.6481873,35.874407 9.4828225,34.000273 9.4387253,33.504179 9.4387253,33.12384 q 0.00551,-1.570965 0.4795577,-2.921444 0.380339,-1.080383 1.085895,-1.587501 0.369315,-0.264584 0.859897,-0.303169 v 0.826824 q -1.025262,0.23151 -1.333942,2.546617 -0.09922,0.749653 -0.09922,1.218187 0,0.463021 0.02205,0.837848 0.02205,0.369314 0.110244,1.069359 0.09371,0.700044 0.385851,1.350478 0.35829,0.804776 0.915018,0.937067 z"
         id="path40443" />
      <path
         d="m 12.343633,29.768695 q 0,-0.270096 0.347266,-0.237023 h 0.672483 v 4.128606 l 1.168578,-2.723006 h 0.727605 l 1.174089,2.954517 v -4.360117 h 0.633898 q 0.07166,-0.0055 0.12678,-0.0055 0.20395,0 0.237023,0.132291 0.03307,0.132292 0.01654,0.231511 v 6.686248 h -0.854384 l -1.653648,-3.742755 h -0.08268 l -1.653648,3.742755 h -0.854384 v -6.686248 q -0.01102,-0.06063 -0.0055,-0.121267 z"
         id="path40445" />
      <path
         d="m 18.467641,29.592305 q 0.606337,0 0.606337,0.617362 0,0.622874 -0.606337,0.622874 -0.297657,0 -0.45751,-0.159852 -0.159852,-0.165365 -0.159852,-0.463022 0,-0.297656 0.159852,-0.457509 0.159853,-0.159853 0.45751,-0.159853 z m 0.463021,6.956344 h -0.948091 v -5.357818 h 0.948091 z"
         id="path40447" />
      <path
         d="m 20.308702,31.521561 q 0.319705,-0.319705 0.644922,-0.319705 h 0.937067 q 0.479558,0 0.826824,0.325217 0.347266,0.325217 0.347266,0.810287 v 4.233338 h -0.942579 v -4.051436 q 0,-0.209462 -0.121268,-0.352779 -0.115755,-0.148828 -0.341753,-0.148828 h -0.804776 q -0.325217,-0.0055 -0.413411,0.402388 -0.02205,0.110243 -0.02756,0.209462 v 3.941193 h -0.942579 l -0.0055,-5.368842 h 0.84336 z"
         id="path40449" />
      <path
         d="m 25.64447,31.196344 q 0.33073,0 0.606338,0.165364 v -1.802475 h 0.948091 v 6.989416 H 26.33349 v -0.259071 q -0.35829,0.259071 -0.799263,0.259071 h -0.385851 q -0.705556,0 -1.118968,-0.457509 -0.418924,-0.457509 -0.418924,-1.168577 v -2.094621 q 0,-1.157553 0.777214,-1.510331 0.270096,-0.121267 0.650435,-0.121267 z m 0.606338,4.134118 v -2.93798 q 0,-0.159853 -0.148828,-0.270096 -0.148829,-0.110243 -0.303169,-0.110243 h -0.584289 q -0.567752,0 -0.63941,0.540192 -0.02205,0.165364 -0.02205,0.347265 v 2.006426 q 0.0055,0.429949 0.09371,0.567752 0.170877,0.264584 0.567752,0.264584 h 0.474046 q 0.303168,0 0.501606,-0.242535 0.06063,-0.07717 0.06063,-0.165365 z"
         id="path40451" />
      <path
         d="m 31.073947,35.418657 q 0.0055,0.474046 -0.391364,0.799263 -0.396875,0.330729 -0.892969,0.330729 h -0.711069 q -0.501606,0 -0.909506,-0.325217 -0.4079,-0.325217 -0.4079,-0.804775 v -3.097833 q 0,-0.48507 0.4079,-0.810287 0.4079,-0.325218 0.909506,-0.325218 h 0.711069 q 0.48507,0 0.887457,0.325218 0.396876,0.325217 0.396876,0.810287 z m -0.942579,-0.181901 v -2.734031 q 0,-0.209462 -0.121268,-0.352778 -0.115755,-0.148828 -0.341754,-0.148828 h -0.523655 q -0.23151,0 -0.336241,0.148828 -0.104731,0.143316 -0.104731,0.352778 v 2.734031 q 0,0.209462 0.104731,0.35829 0.104731,0.143316 0.336241,0.143316 h 0.523655 q 0.225999,0 0.341754,-0.143316 0.121268,-0.148828 0.121268,-0.35829 z"
         id="path40453" />
      <path
         d="m 34.370218,36.16831 q -0.391363,0.380339 -0.8158,0.380339 h -0.727605 q -0.490582,0 -0.84336,-0.319705 -0.352778,-0.319705 -0.352778,-0.810287 v -4.216801 h 0.942579 v 4.0349 q 0,0.209462 0.104731,0.35829 0.104731,0.143316 0.336242,0.143316 h 0.418924 q 0.286632,0 0.418924,-0.253559 0.03858,-0.07717 0.03858,-0.165365 v -4.117582 l 0.948091,-0.0055 v 4.134118 q 0,0.176389 0.12678,0.292145 0.132292,0.115755 0.308681,0.115755 h 0.418924 q 0.225998,0 0.341754,-0.143316 0.121267,-0.148828 0.121267,-0.35829 v -4.0349 l 0.942579,-0.0055 v 4.222313 q 0,0.479558 -0.341754,0.804775 -0.341753,0.325217 -0.832336,0.325217 h -0.71658 q -0.457509,0 -0.837848,-0.380339 z"
         id="path40455" />
      <path
         d="m 40.1194,32.370433 q 0.01102,-0.308681 -0.380339,-0.308681 h -0.68902 q -0.474046,0.0055 -0.429948,0.644923 0.01102,0.165365 0.01102,0.297657 0,0.413411 0.418924,0.413411 h 0.964628 q 0.496094,0 0.799263,0.352779 0.308681,0.352778 0.308681,0.84336 v 0.738629 q 0,0.507119 -0.33073,0.870921 -0.330729,0.35829 -0.832336,0.35829 h -1.212675 q -0.540191,0 -0.84336,-0.347266 -0.308681,-0.347266 -0.308681,-0.887457 h 0.948091 q -0.01102,0.192925 0.09371,0.275608 0.110243,0.07717 0.286632,0.07717 h 0.799263 q 0.418924,0 0.418924,-0.413412 v -0.551216 q 0,-0.429948 -0.418924,-0.429948 h -0.909506 q -0.501606,0 -0.832336,-0.314193 -0.330729,-0.314193 -0.330729,-0.810287 v -0.804776 q 0,-0.496094 0.308681,-0.848872 0.30868,-0.352778 0.799263,-0.352778 h 1.185114 q 0.507118,0 0.815799,0.336242 0.308681,0.336241 0.308681,0.859896 z"
         id="path40457" />
      <path
         d="m 49.076657,33.301988 q 0.242535,0.314193 0.242535,0.771702 v 1.322918 q 0,0.512631 -0.336241,0.859897 -0.336242,0.341754 -0.854385,0.341754 h -1.565453 q -0.848872,0 -1.09692,-0.727605 -0.07717,-0.231511 -0.08268,-0.507119 h 1.058335 q -0.01102,0.352778 0.352778,0.352778 h 1.096919 q 0.391363,0 0.391363,-0.385851 v -1.135504 q 0,-0.25356 -0.165364,-0.363803 -0.05512,-0.03859 -0.143316,-0.03859 h -1.515844 l -0.0055,-0.948091 h 1.53238 q 0.159852,0 0.225998,-0.121268 0.07166,-0.121267 0.07166,-0.259071 v -0.859897 q 0,-0.407899 -0.391363,-0.407899 H 46.79464 q -0.165365,0 -0.259072,0.104731 -0.08819,0.09922 -0.09371,0.259071 h -1.058335 q 0.01102,-0.534679 0.352778,-0.876433 0.347266,-0.347266 0.881946,-0.347266 H 48.1837 q 0.507118,0 0.821311,0.319705 0.314193,0.319705 0.314193,0.826824 v 1.04731 q 0,0.429948 -0.242535,0.771702 z"
         id="path40459" />
      <path
         d="m 53.326531,32.960234 q 0,0.573265 -0.435461,1.030774 -0.43546,0.457509 -0.992188,0.534679 l -0.446485,0.06615 q -0.369315,0.05512 -0.61185,0.396876 -0.242535,0.341753 -0.242535,0.738629 h 2.590715 v 0.854384 H 49.572751 V 35.37456 q 0,-0.551216 0.529167,-1.074871 0.529167,-0.523655 1.074871,-0.622874 0.540192,-0.09922 0.716581,-0.176389 0.407899,-0.187414 0.407899,-0.556728 v -1.185114 q 0,-0.259072 -0.137804,-0.4079 -0.137804,-0.15434 -0.402387,-0.15434 h -0.700044 q -0.176389,0 -0.33073,0.08268 -0.15434,0.07717 -0.165365,0.275608 h -0.986676 q 0.01102,-0.545704 0.352778,-0.865409 0.341754,-0.325217 0.89297,-0.325217 h 1.273308 q 0.545704,0 0.887458,0.352778 0.341754,0.352778 0.341754,0.898482 z"
         id="path40461" />
      <path
         d="m 57.080311,29.531672 -2.204863,8.692673 h -1.014237 l 2.204863,-8.692673 z"
         id="path40463" />
      <path
         d="m 58.612692,32.783845 q 0.275608,-0.09922 0.341754,-0.09922 h 1.350479 q 0.501606,0 0.892969,0.341754 0.391364,0.341754 0.391364,0.848873 v 1.521355 q 0,0.496095 -0.413412,0.837848 -0.413412,0.341754 -0.926043,0.341754 h -1.240235 q -0.523656,0 -0.948092,-0.336242 -0.424436,-0.336241 -0.424436,-0.84336 v -3.786853 q 0,-0.523655 0.308681,-0.892969 0.308681,-0.369315 0.821312,-0.369315 h 2.673396 v 0.865409 h -2.381252 q -0.446485,0 -0.446485,0.385851 z m 0.02205,2.491496 q 0,0.446485 0.385851,0.446485 h 1.163065 q 0.198438,0 0.303169,-0.12678 0.104731,-0.132292 0.104731,-0.319705 v -1.273309 q 0,-0.192925 -0.104731,-0.319705 -0.104731,-0.12678 -0.303169,-0.12678 h -1.163065 q -0.385851,0 -0.385851,0.446485 z"
         id="path40465" />
      <path
         d="m 64.587872,30.507324 q 0.06063,-0.165365 0.237022,-0.165365 h 0.760678 q 0.110243,0 0.192926,0.08268 0.08268,0.08268 0.08268,0.192926 v 3.968754 h 0.545704 V 35.45173 H 65.86118 v 1.107944 h -1.008725 l -0.01102,-1.107944 h -2.42535 q -0.110243,0 -0.20395,-0.08268 -0.09371,-0.08268 -0.09371,-0.209462 0,-0.126779 0.07166,-0.253559 l 2.359204,-4.398702 z m 0.248047,4.078997 -0.02205,-2.607251 -1.383552,2.607251 z"
         id="path40467" />
      <path
         d="m 67.9117,31.361708 q 0.275608,-0.165364 0.606337,-0.165364 h 0.606338 q 0.722093,0 1.074871,0.440972 0.352778,0.440973 0.352778,1.190626 v 2.094621 q 0,0.711068 -0.418924,1.168577 -0.418924,0.457509 -1.118968,0.457509 h -0.385851 q -0.440973,0 -0.799263,-0.259071 v 0.259071 H 66.963609 V 29.559233 H 67.9117 Z m 1.697745,3.544318 V 32.8996 q 0,-0.43546 -0.09371,-0.5898 -0.181901,-0.297657 -0.567752,-0.297657 h -0.584289 q -0.28112,0 -0.413412,0.225998 -0.0441,0.07166 -0.03858,0.154341 v 2.93798 q -0.0055,0.25356 0.391363,0.374827 0.09922,0.03307 0.170877,0.03307 h 0.474046 q 0.567752,0 0.63941,-0.490582 0.02205,-0.15434 0.02205,-0.341754 z"
         id="path40469" />
      <path
         d="m 71.577287,29.592305 q 0.606338,0 0.606338,0.617362 0,0.622874 -0.606338,0.622874 -0.297656,0 -0.457509,-0.159852 -0.159852,-0.165365 -0.159852,-0.463022 0,-0.297656 0.159852,-0.457509 0.159853,-0.159853 0.457509,-0.159853 z m 0.463022,6.956344 h -0.948092 v -5.357818 h 0.948092 z"
         id="path40471" />
      <path
         d="m 73.892392,35.435193 q 0,0.4079 0.440973,0.4079 0.446485,0 0.496094,-0.463021 h 0.20395 v 0.9977 q -0.363802,0.33073 -0.848872,0.33073 -0.909506,0 -1.196139,-0.683508 -0.09371,-0.220486 -0.09371,-0.523655 V 32.199556 H 72.492304 V 31.36722 h 0.402388 v -1.052822 h 0.9977 v 1.052822 h 0.760678 v 0.832336 h -0.760678 z"
         id="path40473" />
      <path
         d="m 78.032028,33.303278 q -0.0055,1.570966 -0.479557,2.915932 -0.380339,1.074871 -1.085896,1.576477 -0.369314,0.264584 -0.859896,0.303169 v -0.821311 q 1.025261,-0.242535 1.333942,-2.568666 0.09922,-0.755166 0.09922,-1.422137 0,-1.190626 -0.237023,-2.182815 -0.385851,-1.593014 -1.196138,-1.785939 v -0.826824 q 0.898482,0.07166 1.499307,0.975652 0.71658,1.080383 0.881945,2.960029 0.0441,0.496094 0.0441,0.876433 z"
         id="path40475" />
    </g>
  </g>
</svg>
